<?xml version="1.0" encoding="UTF-8"?>
<!DOCTYPE svg  PUBLIC '-//W3C//DTD SVG 1.1//EN'  'http://www.w3.org/Graphics/SVG/1.1/DTD/svg11.dtd'>
<svg enable-background="new 0 0 54 65" version="1.1" viewBox="0 0 54 65" xml:space="preserve" xmlns="http://www.w3.org/2000/svg">
<title>Cat</title>
<desc>Created with Sketch.</desc>

	<g transform="translate(1 2)" fill="none" stroke="#6B6C6E" stroke-linecap="round" stroke-linejoin="round" stroke-width="2">
		
			<path d="m42.3 54.2c0-1-1.9-6.1 3.9-14.2s4.8-11.1 4.8-14.2"/>
		
			<path d="m30.3 32.6c7.2 6.8 12.1 17 12.1 23 0 9.7-9.3 5.4-21 5.4s-21.3 4.2-21.3-5.4c0-6.1 4.9-16.2 12.1-23"/>
		
			<path d="m27.2 33c8.7-1.8 15.1-7.4 15.1-14.1 0-2.9-2-7.2-2.8-8.8 0.9-1.7 1.5-9.2 0.1-10.1-1.5-0.8-8.3 6.4-8.3 6.4-3.2-1.4-6-2.2-10.1-2.2s-7.9 0.8-11.1 2.2c0 0-5.6-7.1-7.1-6.2-1.4 0.8-1.1 7.9-0.3 9.8-0.8 1.6-2.7 6-2.7 8.9 0 6.7 6.4 12.3 15.1 14.1"/>
	</g>

</svg>
