<?xml version="1.0" encoding="UTF-8"?>
<!DOCTYPE svg  PUBLIC '-//W3C//DTD SVG 1.1//EN'  'http://www.w3.org/Graphics/SVG/1.1/DTD/svg11.dtd'>
<svg enable-background="new 0 0 64 64" version="1.1" viewBox="0 0 64 64" xml:space="preserve" xmlns="http://www.w3.org/2000/svg">
<title>Dog</title>
<desc>Created with Sketch.</desc>
<g transform="translate(1 6)" fill="none" stroke="#6B6C6E" stroke-linejoin="round" stroke-width="2">
	<path d="m34.7 42c-2.8 0-6.4 4.9-6.4 8h-5.2c-1.7 0-3.2 1.6-3.2 3.5 0 2 1.4 3.4 3.2 3.4h22.5c13 0.1 16.5-11.6 15.4-19.8 0 0-11.1 11.8-14.1 11.8 0.1-12.2-8.9-23.7-14.8-29-3.3-3-4.2-10.9-4.2-10.9v-4.2c0-4.3-0.3-8.9-1.2-9.5-1.6-1.1-4.4 4.6-6.7 4.6-11.7 0-10 8-12.5 8h-5.3c-2.2 0-2.2 1.8-2.2 3 0.2 3.3 1.9 6 10 6 2 0 5.1 2.8 5.1 7.9v26.1h-1.1c-1.1 0-2 0.9-2 2v2c0 1.1 0.9 2 2 2h15.75"/>
	<path d="m20.9 38v8.8"/>
	<path d="m1 14h6"/>
</g>
</svg>
